<svg data-name="Camada 1" xmlns="http://www.w3.org/2000/svg" viewBox="0 0 100.52 22.47"><path data-name="União 2" d="M0 11.24C.05 4.98 5.17-.05 11.42 0c6.26-.05 11.37 4.98 11.42 11.24-.05 6.26-5.17 11.29-11.42 11.24C5.17 22.52.05 17.49 0 11.24Zm2.03 0c.05 5.14 4.25 9.28 9.4 9.24 5.14.04 9.34-4.1 9.39-9.24-.04-5.14-4.24-9.28-9.39-9.24-5.15-.04-9.35 4.1-9.39 9.24Zm11.38 6.52c-1.64-.93-1.72-3.62-1.69-4.93 0-.08.06-.15.14-.18.24-.07.46-.2.64-.37a.2.2 0 0 1 .27-.01c.36.32.68.69.95 1.08.05.07.15.09.23.04.26-.14.57-.19.86-.15.04 0 .07-.02.09-.05a.09.09 0 0 0 0-.1c-.18-.23-.28-.51-.29-.8 0-.09-.06-.17-.16-.18a7.07 7.07 0 0 1-1.43-.27.215.215 0 0 1-.12-.24c.06-.24.06-.49 0-.73-.02-.08 0-.17.08-.21 1.13-.67 3.54-1.95 5.18-1.02a2.58 2.58 0 0 1 1.08 3.49c-.04.07-.08.14-.13.21-.3.59-.82 1.05-1.45 1.29-.04.02-.08.04-.1.08-.02.04-.03.09-.02.13.1.66-.04 1.33-.41 1.88-.67 1.3-2.27 1.8-3.56 1.13-.06-.03-.11-.06-.16-.09Zm-7.7-1.04a2.68 2.68 0 0 1-.42-1.89.18.18 0 0 0-.12-.21 2.66 2.66 0 0 1-1.44-1.3c-.78-1.18-.46-2.77.72-3.55.08-.05.15-.1.23-.14 1.64-.93 4.05.35 5.18 1.02.07.04.11.12.09.2-.07.24-.07.49 0 .73.02.1-.03.2-.12.24-.47.14-.95.23-1.43.27-.09 0-.16.08-.16.17 0 .29-.1.58-.28.81a.09.09 0 0 0 0 .1c.02.03.05.04.09.04.3-.03.6.02.86.16.08.05.18.03.24-.04.28-.4.6-.76.95-1.08a.2.2 0 0 1 .27.01c.18.18.4.3.64.37.08.02.14.09.15.18.02 1.3-.05 3.99-1.7 4.92-.42.25-.89.38-1.38.39-.98-.03-1.87-.57-2.34-1.42Zm4.79-5.49c0-.51.4-.93.91-.94.51 0 .93.4.94.91s-.4.93-.91.94h-.01c-.5 0-.92-.4-.92-.9Zm1.98-1.09c-.18-.17-.4-.3-.64-.36a.19.19 0 0 1-.15-.22c.1-.47.26-.92.47-1.35.04-.08 0-.18-.07-.22-.26-.15-.46-.37-.57-.64-.01-.03-.05-.06-.08-.06-.04 0-.07.02-.09.06-.12.27-.32.49-.57.64-.08.04-.12.14-.08.22.21.43.37.89.48 1.35.02.1-.05.2-.15.22-.24.07-.46.19-.64.36-.06.06-.15.07-.23.04C9 9.55 6.68 8.14 6.68 6.27a2.625 2.625 0 0 1 2.59-2.66h.19c.67-.04 1.34.17 1.86.59.07.06.18.06.25 0 .52-.42 1.19-.64 1.86-.59a2.629 2.629 0 0 1 2.77 2.48v.19c0 1.87-2.33 3.28-3.48 3.9-.03.01-.05.02-.08.02a.24.24 0 0 1-.15-.06Z" style="fill:#f25c1a;stroke-width:0"/><path data-name="União 1" d="M88.62 17.53a5.738 5.738 0 0 1-2.64-2.49 8.511 8.511 0 0 1-.9-4.05v-.25c-.04-1.4.27-2.79.9-4.04a5.842 5.842 0 0 1 2.62-2.49c1.31-.6 2.74-.89 4.17-.85 1.45-.04 2.89.25 4.21.85 1.12.53 2.03 1.4 2.62 2.49.63 1.25.94 2.64.89 4.04v.25c.04 1.4-.26 2.79-.89 4.04a5.842 5.842 0 0 1-2.62 2.49c-1.32.6-2.75.88-4.19.84-1.44.04-2.86-.25-4.18-.83Zm1.95-10.86c-.62.35-1.12.88-1.43 1.53-.35.76-.52 1.59-.5 2.43v.43c-.02.85.15 1.7.5 2.47.3.65.81 1.18 1.43 1.53 1.41.68 3.05.68 4.46 0 .62-.35 1.11-.88 1.41-1.53.34-.78.5-1.62.48-2.47v-.43c.02-.83-.14-1.66-.48-2.42a3.34 3.34 0 0 0-1.42-1.53c-1.4-.69-3.05-.7-4.45-.01ZM57.94 17.51a5.727 5.727 0 0 1-2.59-2.49 8.437 8.437 0 0 1-.89-4.04v-.21a8.44 8.44 0 0 1 .89-4.07 5.777 5.777 0 0 1 2.58-2.5c1.29-.6 2.71-.89 4.13-.84 1.35-.03 2.68.23 3.92.75 1.04.43 1.93 1.14 2.57 2.06.16.23.3.47.42.72l-2.31 1.14c-.41.2-.9.06-1.16-.32-.02-.03-.03-.05-.05-.07a3.26 3.26 0 0 0-1.36-1.1c-.63-.28-1.3-.41-1.99-.4-.76-.02-1.51.15-2.17.52-.61.35-1.1.88-1.4 1.52a5.62 5.62 0 0 0-.5 2.46v.41c-.03.85.15 1.7.5 2.48.3.64.78 1.17 1.39 1.52.66.36 1.41.54 2.17.52.69.01 1.37-.1 2.02-.34.55-.2 1.03-.56 1.39-1.02.02-.02.04-.05.06-.08.26-.37.75-.5 1.15-.3l2.23 1.13c-.11.22-.23.43-.36.63a5.82 5.82 0 0 1-2.56 2.04c-1.26.52-2.61.77-3.98.73-1.41.04-2.81-.25-4.09-.84Zm-29.33.75c-.56-.06-1.11-.14-1.63-.24-.1-.01-.21-.03-.31-.06-.1-.02-.21-.04-.3-.06l.2-2.62c.25.05.53.11.84.16.31.06.64.11 1 .15.29.04.58.07.87.09s.57.03.83.03c.57.02 1.14-.11 1.65-.36.45-.25.81-.63 1.03-1.1.26-.59.39-1.24.37-1.89V6.38h-2.82c-.5 0-.9-.4-.9-.9V3.6h7.26v8.84c.06 1.22-.22 2.43-.8 3.51a4.36 4.36 0 0 1-2.2 1.86c-1.11.39-2.27.58-3.45.55-.54 0-1.09-.03-1.63-.09Zm46.92-.15V6.55h-4.82V3.61h13.17v2.94H79.1v11.58h-3.56Zm-25.69 0-.93-2.76-.08-.23-.14-.05c-1.8-.58-3.74-.58-5.55 0l-.14.05-.22.65-.78 2.34h-3.84l5.35-13.96c.13-.34.45-.56.81-.55h3.76l5.56 14.52h-3.81Zm-1.93-5.67-.14-.41-1.84-5.69h-.04l-1.99 6.1c.66-.11 1.33-.17 2-.17.67 0 1.35.06 2.01.17Zm18.78 1.36h.01Z" style="stroke-width:0;fill:#1b1a1b"/></svg>